<svg width="24" height="24" viewBox="0 0 24 24" fill="none" xmlns="http://www.w3.org/2000/svg">
<path d="M7.82139 1.99023H16.1774C19.3607 1.99023 21.9471 4.57662 21.9471 7.75987V16.1159C21.9471 17.6461 21.3392 19.1136 20.2572 20.1956C19.1752 21.2777 17.7076 21.8855 16.1774 21.8855H7.82139C4.63815 21.8855 2.05176 19.2991 2.05176 16.1159V7.75987C2.05176 6.22967 2.65963 4.76214 3.74165 3.68012C4.82366 2.59811 6.29119 1.99023 7.82139 1.99023ZM7.62244 3.97976C6.67266 3.97976 5.76178 4.35706 5.09018 5.02866C4.41859 5.70026 4.04129 6.61114 4.04129 7.56092V16.3148C4.04129 18.2944 5.64286 19.896 7.62244 19.896H16.3764C17.3262 19.896 18.237 19.5187 18.9086 18.8471C19.5802 18.1755 19.9575 17.2646 19.9575 16.3148V7.56092C19.9575 5.58134 18.356 3.97976 16.3764 3.97976H7.62244ZM17.2219 5.47191C17.5517 5.47191 17.868 5.60292 18.1012 5.83611C18.3344 6.0693 18.4654 6.38558 18.4654 6.71537C18.4654 7.04515 18.3344 7.36143 18.1012 7.59462C17.868 7.82782 17.5517 7.95882 17.2219 7.95882C16.8921 7.95882 16.5759 7.82782 16.3427 7.59462C16.1095 7.36143 15.9785 7.04515 15.9785 6.71537C15.9785 6.38558 16.1095 6.0693 16.3427 5.83611C16.5759 5.60292 16.8921 5.47191 17.2219 5.47191ZM11.9994 6.96406C13.3185 6.96406 14.5837 7.48809 15.5164 8.42086C16.4492 9.35363 16.9732 10.6187 16.9732 11.9379C16.9732 13.257 16.4492 14.5221 15.5164 15.4549C14.5837 16.3877 13.3185 16.9117 11.9994 16.9117C10.6803 16.9117 9.41516 16.3877 8.48238 15.4549C7.54961 14.5221 7.02558 13.257 7.02558 11.9379C7.02558 10.6187 7.54961 9.35363 8.48238 8.42086C9.41516 7.48809 10.6803 6.96406 11.9994 6.96406ZM11.9994 8.95359C11.2079 8.95359 10.4489 9.268 9.88919 9.82767C9.32953 10.3873 9.01511 11.1464 9.01511 11.9379C9.01511 12.7294 9.32953 13.4884 9.88919 14.0481C10.4489 14.6078 11.2079 14.9222 11.9994 14.9222C12.7909 14.9222 13.55 14.6078 14.1096 14.0481C14.6693 13.4884 14.9837 12.7294 14.9837 11.9379C14.9837 11.1464 14.6693 10.3873 14.1096 9.82767C13.55 9.268 12.7909 8.95359 11.9994 8.95359Z" fill="#7B7A79"/>
</svg>
