<svg width="28" height="28" viewBox="0 0 28 28" fill="none" xmlns="http://www.w3.org/2000/svg">
<path d="M21.5465 26.2508C21.3624 26.2516 21.1827 26.1941 21.033 26.0868L13.9997 20.9877L6.96629 26.0868C6.81603 26.1958 6.635 26.2541 6.44938 26.2535C6.26375 26.2528 6.08315 26.1931 5.93368 26.083C5.78422 25.9729 5.67363 25.8182 5.61791 25.6411C5.56219 25.4641 5.56422 25.2739 5.62372 25.098L8.36684 16.9731L1.25747 12.0977C1.10347 11.9922 0.987247 11.8403 0.925771 11.664C0.864295 11.4878 0.860791 11.2965 0.91577 11.1181C0.97075 10.9397 1.08133 10.7836 1.23136 10.6725C1.38139 10.5615 1.563 10.5013 1.74965 10.5008H10.5204L13.1673 2.35513C13.2243 2.17927 13.3356 2.02599 13.4851 1.91727C13.6347 1.80856 13.8148 1.75 13.9997 1.75C14.1845 1.75 14.3647 1.80856 14.5142 1.91727C14.6637 2.02599 14.775 2.17927 14.832 2.35513L17.4789 10.5036H26.2497C26.4365 10.5035 26.6186 10.5632 26.769 10.6741C26.9195 10.7849 27.0305 10.941 27.0859 11.1195C27.1412 11.298 27.1379 11.4896 27.0765 11.6661C27.0151 11.8426 26.8988 11.9948 26.7446 12.1004L19.6325 16.9731L22.374 25.0958C22.4184 25.2273 22.4309 25.3675 22.4104 25.5048C22.3899 25.6421 22.3371 25.7726 22.2563 25.8854C22.1754 25.9982 22.0689 26.0902 21.9455 26.1538C21.8221 26.2173 21.6853 26.2506 21.5465 26.2508Z" fill="#313130"/>
</svg>
