<svg width="24" height="24" viewBox="0 0 24 24" fill="none" xmlns="http://www.w3.org/2000/svg">
<g clip-path="url(#clip0_1048_32906)">
<path fill-rule="evenodd" clip-rule="evenodd" d="M19.7351 4.40713C19.9809 4.30367 20.25 4.26798 20.5143 4.30379C20.7786 4.3396 21.0284 4.4456 21.2379 4.61075C21.4473 4.77589 21.6086 4.99416 21.7051 5.24282C21.8015 5.49148 21.8296 5.76145 21.7863 6.02462L19.5301 19.7096C19.3113 21.0297 17.8629 21.7867 16.6523 21.1291C15.6396 20.579 14.1355 19.7315 12.7827 18.8471C12.1062 18.4045 10.0341 16.9869 10.2888 15.9782C10.5076 15.1158 13.9893 11.8748 15.9788 9.94797C16.7597 9.19096 16.4036 8.75426 15.4815 9.45059C13.1915 11.1795 9.51485 13.8087 8.29925 14.5488C7.22689 15.2013 6.66784 15.3127 5.99935 15.2013C4.77977 14.9984 3.64872 14.6841 2.72558 14.3011C1.47815 13.7838 1.53883 12.0688 2.72459 11.5694L19.7351 4.40713Z" stroke="#7B7A79" stroke-width="1.96228"/>
</g>
<defs>
<clipPath id="clip0_1048_32906">
<rect width="23.8744" height="23.8744" fill="white" transform="translate(0.0634766)"/>
</clipPath>
</defs>
</svg>
