<svg width="24" height="24" viewBox="0 0 24 24" fill="none" xmlns="http://www.w3.org/2000/svg">
<path d="M19.0126 4.88506C18.1006 3.96383 17.0143 3.23342 15.817 2.73642C14.6198 2.23942 13.3356 1.98578 12.0393 1.99029C6.60785 1.99029 2.18114 6.417 2.18114 11.8484C2.18114 13.5893 2.63874 15.2804 3.49423 16.7725L2.10156 21.8856L7.32408 20.5128C8.76649 21.2987 10.388 21.7165 12.0393 21.7165C17.4707 21.7165 21.8974 17.2898 21.8974 11.8584C21.8974 9.22223 20.8728 6.74527 19.0126 4.88506ZM12.0393 20.0453C10.567 20.0453 9.1246 19.6474 7.86125 18.9013L7.56282 18.7222L4.45916 19.5379L5.28481 16.5139L5.08586 16.2055C4.26791 14.8993 3.83359 13.3895 3.83245 11.8484C3.83245 7.33218 7.51308 3.65155 12.0293 3.65155C14.2178 3.65155 16.277 4.50705 17.8189 6.05888C18.5823 6.81885 19.1873 7.72279 19.5989 8.71831C20.0104 9.71384 20.2202 10.7811 20.2162 11.8584C20.2361 16.3746 16.5555 20.0453 12.0393 20.0453ZM16.5356 13.9175C16.2869 13.7982 15.0733 13.2013 14.8545 13.1118C14.6257 13.0322 14.4665 12.9924 14.2974 13.2311C14.1283 13.4798 13.6607 14.0369 13.5215 14.1961C13.3822 14.3652 13.233 14.3851 12.9843 14.2557C12.7356 14.1364 11.9398 13.8678 11.0047 13.0322C10.2686 12.3756 9.78115 11.5699 9.63193 11.3212C9.49267 11.0725 9.61204 10.9432 9.74136 10.8139C9.85078 10.7044 9.99005 10.5254 10.1094 10.3861C10.2288 10.2468 10.2785 10.1374 10.3581 9.97826C10.4377 9.80915 10.3979 9.66988 10.3382 9.55051C10.2785 9.43114 9.78115 8.21752 9.5822 7.72014C9.38324 7.24265 9.17434 7.30234 9.02513 7.29239H8.54764C8.37853 7.29239 8.11989 7.35208 7.89109 7.60077C7.67225 7.84946 7.0356 8.44632 7.0356 9.65993C7.0356 10.8735 7.92094 12.0474 8.04031 12.2065C8.15968 12.3756 9.78115 14.8626 12.2482 15.927C12.8351 16.1856 13.2927 16.3348 13.6508 16.4442C14.2377 16.6332 14.7749 16.6034 15.2026 16.5437C15.6801 16.4741 16.6649 15.9468 16.8639 15.3699C17.0728 14.7929 17.0728 14.3055 17.0031 14.1961C16.9335 14.0866 16.7843 14.0369 16.5356 13.9175Z" fill="#7B7A79"/>
</svg>
